<svg xmlns="http://www.w3.org/2000/svg" viewBox="0 0 256 256" fill="currentColor"><path d="M232,64a24,24,0,1,0-24,24A24,24,0,0,0,232,64Zm-24,8a8,8,0,1,1,8-8A8,8,0,0,1,208,72Zm-24,88a24,24,0,1,0,24,24A24,24,0,0,0,184,160Zm0,32a8,8,0,1,1,8-8A8,8,0,0,1,184,192Zm-40-96a24,24,0,1,0-24,24A24,24,0,0,0,144,96Zm-24,8a8,8,0,1,1,8-8A8,8,0,0,1,120,104Zm88,80a8,8,0,0,1-8,8H96a8,8,0,0,1,0-16h64V104a8,8,0,0,1,16,0v80Z"/><circle cx="48" cy="64" r="8" fill="currentColor" opacity="0.0"/><circle cx="48" cy="64" r="0"/></svg>